<svg width="28" height="24" viewBox="0 0 28 24" fill="none" xmlns="http://www.w3.org/2000/svg">
<path d="M24.95 0.95C24.35 0.35 23.3 0.35 22.55 0.95L18.95 4.55C17.3656 3.96185 15.69 3.6572 14 3.65C8.3 3.8 3.2 6.8 0.5 11.75C0.8 12.35 1.25 12.95 1.7 13.55C2.9 15.2 4.4 16.55 6.05 17.6L3.5 20.15C2.9 20.75 2.75 21.8 3.5 22.55C4.1 23.15 5.15 23.3 5.9 22.55L24.95 3.35C25.55 2.6 25.55 1.55 24.95 0.95ZM9.05 14.45L7.1 16.4C5.3 15.35 3.65 13.85 2.45 12.05C4.25 9.5 6.65 7.7 9.5 6.8C7.55 8.9 7.4 12.2 9.05 14.45ZM14.15 9.5C13.4 8.75 13.55 7.55 14.3 6.8C15.05 6.2 16.1 6.2 16.85 6.8L14.15 9.5ZM26.45 10.25C25.7 9.2 24.8 8.15 23.75 7.4L22.25 8.9C23.45 9.8 24.5 10.85 25.4 12.2C22.85 16.1 18.5 18.5 13.85 18.5H12.65L11.15 20C12.2 19.85 13.1 20 14 20C18.95 20 23.6 17.6 26.45 13.55C26.9 12.95 27.2 12.35 27.65 11.75C27.2 11.3 26.9 10.7 26.45 10.25ZM20 11L14 17C17.3 17 20 14.3 20 11Z" fill="#616161"/>
</svg>
