<svg width="46" height="35" viewBox="0 0 46 35" fill="none" xmlns="http://www.w3.org/2000/svg">
<rect width="46" height="35" fill="#E5E5E5"/>
<g clip-path="url(#clip0_1282_3368)">
<rect width="1260" height="1196" transform="translate(-234 -450)" fill="white"/>
<rect x="-208" y="-14" width="274" height="154" rx="10" fill="#F5F5F5"/>
<path d="M41.1765 1.02941C38.8912 0.308824 36.3794 0 33.9706 0C29.9559 0 25.6324 0.823529 22.6471 3.08824C19.6618 0.823529 15.3382 0 11.3235 0C7.30882 0 2.98529 0.823529 0 3.08824V33.25C0 33.7647 0.514706 34.2794 1.02941 34.2794C1.23529 34.2794 1.33824 34.1765 1.54412 34.1765C4.32353 32.8382 8.33824 31.9118 11.3235 31.9118C15.3382 31.9118 19.6618 32.7353 22.6471 35C25.4265 33.25 30.4706 31.9118 33.9706 31.9118C37.3676 31.9118 40.8676 32.5294 43.75 34.0735C43.9559 34.1765 44.0588 34.1765 44.2647 34.1765C44.7794 34.1765 45.2941 33.6618 45.2941 33.1471V3.08824C44.0588 2.16176 42.7206 1.54412 41.1765 1.02941ZM41.1765 28.8235C38.9118 28.1029 36.4412 27.7941 33.9706 27.7941C30.4706 27.7941 25.4265 29.1324 22.6471 30.8824V7.20588C25.4265 5.45588 30.4706 4.11765 33.9706 4.11765C36.4412 4.11765 38.9118 4.42647 41.1765 5.14706V28.8235Z" fill="#C4C4C4"/>
<path d="M33.9705 12.3531C35.7823 12.3531 37.5323 12.5384 39.1176 12.8884V9.75895C37.4911 9.45013 35.7411 9.26483 33.9705 9.26483C30.4705 9.26483 27.2999 9.86189 24.7058 10.9737V14.3913C27.0323 13.0737 30.2646 12.3531 33.9705 12.3531Z" fill="#C4C4C4"/>
<path d="M24.7058 16.4499V19.8676C27.0323 18.5499 30.2646 17.8293 33.9705 17.8293C35.7823 17.8293 37.5323 18.0146 39.1176 18.3646V15.2352C37.4911 14.9264 35.7411 14.7411 33.9705 14.7411C30.4705 14.7411 27.2999 15.3587 24.7058 16.4499Z" fill="#C4C4C4"/>
<path d="M33.9705 20.2382C30.4705 20.2382 27.2999 20.8352 24.7058 21.947V25.3646C27.0323 24.047 30.2646 23.3264 33.9705 23.3264C35.7823 23.3264 37.5323 23.5117 39.1176 23.8617V20.7323C37.4911 20.4029 35.7411 20.2382 33.9705 20.2382Z" fill="#C4C4C4"/>
</g>
<defs>
<clipPath id="clip0_1282_3368">
<rect width="1260" height="1196" fill="white" transform="translate(-234 -450)"/>
</clipPath>
</defs>
</svg>
