<svg width="20" height="20" viewBox="0 0 20 20" fill="none" xmlns="http://www.w3.org/2000/svg">
<rect width="20" height="20" fill="#E5E5E5"/>
<g clip-path="url(#clip0_1282_3368)">
<rect width="1260" height="1196" transform="translate(-1142 -36)" fill="white"/>
<path d="M179 -90H-1264V372H179V-90Z" fill="#F5F5F5"/>
<g filter="url(#filter0_d_1282_3368)">
<path d="M259 -37H-1184V56H259V-37Z" fill="white"/>
</g>
<path d="M16 0H4C1.79086 0 0 1.79086 0 4V16C0 18.2091 1.79086 20 4 20H16C18.2091 20 20 18.2091 20 16V4C20 1.79086 18.2091 0 16 0Z" fill="#265361"/>
<path d="M11.6826 12H10.1104L9.48535 10.374H6.62402L6.0332 12H4.5L7.28809 4.8418H8.81641L11.6826 12ZM9.02148 9.16797L8.03516 6.51172L7.06836 9.16797H9.02148ZM13.4697 8.39648L12.2246 8.17188C12.3646 7.67057 12.6055 7.29948 12.9473 7.05859C13.2891 6.81771 13.7969 6.69727 14.4707 6.69727C15.0827 6.69727 15.5384 6.77051 15.8379 6.91699C16.1374 7.06022 16.3473 7.24414 16.4678 7.46875C16.5915 7.6901 16.6533 8.09863 16.6533 8.69434L16.6387 10.2959C16.6387 10.7516 16.6598 11.0885 16.7021 11.3066C16.7477 11.5215 16.8307 11.7526 16.9512 12H15.5938C15.5579 11.9089 15.514 11.7738 15.4619 11.5947C15.4391 11.5133 15.4229 11.4596 15.4131 11.4336C15.1787 11.6615 14.9281 11.8324 14.6611 11.9463C14.3942 12.0602 14.1094 12.1172 13.8066 12.1172C13.2728 12.1172 12.8512 11.9723 12.542 11.6826C12.236 11.3929 12.083 11.0267 12.083 10.584C12.083 10.291 12.153 10.0306 12.293 9.80273C12.4329 9.57161 12.6283 9.39583 12.8789 9.27539C13.1328 9.15169 13.4974 9.04427 13.9727 8.95312C14.6139 8.83268 15.0583 8.72038 15.3057 8.61621V8.47949C15.3057 8.21582 15.2406 8.02865 15.1104 7.91797C14.9801 7.80404 14.7344 7.74707 14.373 7.74707C14.1289 7.74707 13.9385 7.7959 13.8018 7.89355C13.665 7.98796 13.5544 8.1556 13.4697 8.39648ZM15.3057 9.50977C15.1299 9.56836 14.8516 9.63835 14.4707 9.71973C14.0898 9.80111 13.8408 9.88086 13.7236 9.95898C13.5446 10.0859 13.4551 10.2471 13.4551 10.4424C13.4551 10.6344 13.5267 10.8005 13.6699 10.9404C13.8132 11.0804 13.9954 11.1504 14.2168 11.1504C14.4642 11.1504 14.7002 11.069 14.9248 10.9062C15.0908 10.7826 15.1999 10.6312 15.252 10.4521C15.2878 10.335 15.3057 10.112 15.3057 9.7832V9.50977Z" fill="white"/>
</g>
<defs>
<filter id="filter0_d_1282_3368" x="-1192" y="-41" width="1459" height="109" filterUnits="userSpaceOnUse" color-interpolation-filters="sRGB">
<feFlood flood-opacity="0" result="BackgroundImageFix"/>
<feColorMatrix in="SourceAlpha" type="matrix" values="0 0 0 0 0 0 0 0 0 0 0 0 0 0 0 0 0 0 127 0" result="hardAlpha"/>
<feOffset dy="4"/>
<feGaussianBlur stdDeviation="4"/>
<feComposite in2="hardAlpha" operator="out"/>
<feColorMatrix type="matrix" values="0 0 0 0 0 0 0 0 0 0 0 0 0 0 0 0 0 0 0.25 0"/>
<feBlend mode="normal" in2="BackgroundImageFix" result="effect1_dropShadow_1282_3368"/>
<feBlend mode="normal" in="SourceGraphic" in2="effect1_dropShadow_1282_3368" result="shape"/>
</filter>
<clipPath id="clip0_1282_3368">
<rect width="1260" height="1196" fill="white" transform="translate(-1142 -36)"/>
</clipPath>
</defs>
</svg>
